<svg width="41" height="40" viewBox="0 0 41 40" fill="none" xmlns="http://www.w3.org/2000/svg">
<rect x="0.896484" width="40" height="40" fill="white"/>
<path fill-rule="evenodd" clip-rule="evenodd" d="M27.7579 20.1127C27.7579 16.3916 24.742 13.3643 21.0095 13.3643C17.2885 13.3643 14.2612 16.3916 14.2612 20.1127C14.2612 23.8451 17.2885 26.8614 21.0095 26.8614C24.742 26.8614 27.7579 23.8451 27.7579 20.1127ZM27.6311 12.4514C27.0301 12.4514 26.545 12.9365 26.545 13.5371C26.545 14.1385 27.0301 14.6236 27.6311 14.6236C28.2321 14.6236 28.7172 14.1385 28.7172 13.5371C28.7172 12.9365 28.2321 12.4514 27.6311 12.4514ZM15.4978 10.8916H26.5332C28.5789 10.8916 30.2428 12.5551 30.2428 14.6008V25.6362C30.2428 27.6815 28.5789 29.3455 26.5332 29.3455H15.4978C13.452 29.3455 11.7881 27.6815 11.7881 25.6362V14.6008C11.7881 12.5551 13.452 10.8916 15.4978 10.8916ZM26.5332 9.65515H15.4978C12.782 9.65515 10.5516 11.8733 10.5516 14.6009V25.6363C10.5516 28.3518 12.782 30.5821 15.4978 30.5821H26.5332C29.2605 30.5821 31.479 28.3518 31.479 25.6363V14.6009C31.479 11.8733 29.2605 9.65515 26.5332 9.65515ZM15.6708 20.1125C15.6708 17.1657 18.063 14.7621 21.0098 14.7621C23.968 14.7621 26.3602 17.1657 26.3602 20.1125C26.3602 23.0707 23.968 25.4629 21.0098 25.4629C18.063 25.4629 15.6708 23.0707 15.6708 20.1125Z" fill="#333333"/>
<path d="M28.0079 20.1127C28.0079 16.2538 24.8803 13.1143 21.0095 13.1143V13.6143C24.6036 13.6143 27.5079 16.5294 27.5079 20.1127H28.0079ZM21.0095 13.1143C17.1504 13.1143 14.0112 16.2536 14.0112 20.1127H14.5112C14.5112 16.5297 17.4266 13.6143 21.0095 13.6143V13.1143ZM14.0112 20.1127C14.0112 23.9834 17.1507 27.1114 21.0095 27.1114V26.6114C17.4263 26.6114 14.5112 23.7067 14.5112 20.1127H14.0112ZM21.0095 27.1114C24.88 27.1114 28.0079 23.9831 28.0079 20.1127H27.5079C27.5079 23.707 24.6039 26.6114 21.0095 26.6114V27.1114ZM27.6311 12.2014C26.8921 12.2014 26.295 12.7983 26.295 13.5371H26.795C26.795 13.0746 27.1681 12.7014 27.6311 12.7014V12.2014ZM26.295 13.5371C26.295 14.2765 26.892 14.8736 27.6311 14.8736V14.3736C27.1682 14.3736 26.795 14.0005 26.795 13.5371H26.295ZM27.6311 14.8736C28.3702 14.8736 28.9672 14.2765 28.9672 13.5371H28.4672C28.4672 14.0005 28.094 14.3736 27.6311 14.3736V14.8736ZM28.9672 13.5371C28.9672 12.7983 28.3701 12.2014 27.6311 12.2014V12.7014C28.0941 12.7014 28.4672 13.0746 28.4672 13.5371H28.9672ZM15.4978 11.1416H26.5332V10.6416H15.4978V11.1416ZM26.5332 11.1416C28.4409 11.1416 29.9928 12.6932 29.9928 14.6008H30.4928C30.4928 12.417 28.717 10.6416 26.5332 10.6416V11.1416ZM29.9928 14.6008V25.6362H30.4928V14.6008H29.9928ZM29.9928 25.6362C29.9928 27.5435 28.4409 29.0955 26.5332 29.0955V29.5955C28.717 29.5955 30.4928 27.8196 30.4928 25.6362H29.9928ZM26.5332 29.0955H15.4978V29.5955H26.5332V29.0955ZM15.4978 29.0955C13.5901 29.0955 12.0381 27.5435 12.0381 25.6362H11.5381C11.5381 27.8196 13.314 29.5955 15.4978 29.5955V29.0955ZM12.0381 25.6362V14.6008H11.5381V25.6362H12.0381ZM12.0381 14.6008C12.0381 12.6932 13.5901 11.1416 15.4978 11.1416V10.6416C13.314 10.6416 11.5381 12.417 11.5381 14.6008H12.0381ZM26.5332 9.40515H15.4978V9.90515H26.5332V9.40515ZM15.4978 9.40515C12.6443 9.40515 10.3016 11.7348 10.3016 14.6009H10.8016C10.8016 12.0118 12.9196 9.90515 15.4978 9.90515V9.40515ZM10.3016 14.6009V25.6363H10.8016V14.6009H10.3016ZM10.3016 25.6363C10.3016 28.4899 12.6439 30.8321 15.4978 30.8321V30.3321C12.92 30.3321 10.8016 28.2137 10.8016 25.6363H10.3016ZM15.4978 30.8321H26.5332V30.3321H15.4978V30.8321ZM26.5332 30.8321C29.3989 30.8321 31.729 28.4895 31.729 25.6363H31.229C31.229 28.2141 29.122 30.3321 26.5332 30.3321V30.8321ZM31.729 25.6363V14.6009H31.229V25.6363H31.729ZM31.729 14.6009C31.729 11.7352 29.3985 9.40515 26.5332 9.40515V9.90515C29.1224 9.90515 31.229 12.0114 31.229 14.6009H31.729ZM15.9208 20.1125C15.9208 17.3031 18.2018 15.0121 21.0098 15.0121V14.5121C17.9242 14.5121 15.4208 17.0283 15.4208 20.1125H15.9208ZM21.0098 15.0121C23.8296 15.0121 26.1102 17.3034 26.1102 20.1125H26.6102C26.6102 17.028 24.1064 14.5121 21.0098 14.5121V15.0121ZM26.1102 20.1125C26.1102 22.9326 23.8299 25.2129 21.0098 25.2129V25.7129C24.1061 25.7129 26.6102 23.2088 26.6102 20.1125H26.1102ZM21.0098 25.2129C18.2014 25.2129 15.9208 22.933 15.9208 20.1125H15.4208C15.4208 23.2084 17.9246 25.7129 21.0098 25.7129V25.2129Z" fill="#333333"/>
</svg>
